# xmcd
#
# Track frame offsets:
#	150
#	14705
#	29711
#	43967
#	57772
#	73677
#	90333
#	109389
#	131295
#	147651
#	163556
#
# Disc length: 2416 seconds
#
# Revision: 1
# Processed by: cddbd v1.5.1PL0 Copyright (c) Steve Scherf et al.
# Submitted via: audiograbber 1.82.02
#
DISCID=a1096e0b
DTITLE=Buddy Jewel - Times Like These
DYEAR=2005
DGENRE=Country
TTITLE0=Buddy Jewell - Me Lovin' You
TTITLE1=Buddy Jewell - If She Were Any Other Woman
TTITLE2=Buddy Jewell - Back To You
TTITLE3=Buddy Jewell - So Gone
TTITLE4=Buddy Jewell - You Ain't Doin' It Right
TTITLE5=Buddy Jewell - Addicted To The Rain
TTITLE6=Buddy Jewell - I'd Run
TTITLE7=Buddy Jewell - Dyess Arkansas
TTITLE8=Buddy Jewell - Glad I'm Gone
TTITLE9=Buddy Jewell - Times Like These
TTITLE10=Buddy Jewell - Run Away Home
EXTD=
EXTT0=
EXTT1=
EXTT2=
EXTT3=
EXTT4=
EXTT5=
EXTT6=
EXTT7=
EXTT8=
EXTT9=
EXTT10=
PLAYORDER=
